HIERARCHY
ROOT Model_Hips
{
	OFFSET 0.000000 96.915077 0.000000
	CHANNELS 6 Xposition Yposition Zposition Xrotation Yrotation Zrotation
	JOINT Model_Spine
	{
		OFFSET 0.000000 11.137703 -1.289900
		CHANNELS 3 Xrotation Yrotation Zrotation
		JOINT Model_Spine1
		{
			OFFSET 0.000000 12.993942 -1.504922
			CHANNELS 3 Xrotation Yrotation Zrotation
			JOINT Model_Spine2
			{
				OFFSET 0.000000 14.850220 -1.719911
				CHANNELS 3 Xrotation Yrotation Zrotation
				JOINT Model_Neck
				{
					OFFSET 0.000000 16.706543 -1.934903
					CHANNELS 3 Xrotation Yrotation Zrotation
					JOINT Model_Head
					{
						OFFSET 0.000000 10.471298 2.002100
						CHANNELS 3 Xrotation Yrotation Zrotation
						JOINT Model_HeadTop_End
						{
							OFFSET 0.000000 20.842606 3.985100
							CHANNELS 3 Xrotation Yrotation Zrotation
							End Site
							{
								OFFSET 0.000000 21.220154 0.000000
							}
						}
					}
				}
				JOINT Model_LeftShoulder
				{
					OFFSET 7.008500 14.768600 -1.919946
					CHANNELS 3 Xrotation Yrotation Zrotation
					JOINT Model_LeftArm
					{
						OFFSET 14.126271 -3.718048 0.029937
						CHANNELS 3 Xrotation Yrotation Zrotation
						JOINT Model_LeftForeArm
						{
							OFFSET 28.282801 0.000000 0.000000
							CHANNELS 3 Xrotation Yrotation Zrotation
							JOINT Model_LeftHand
							{
								OFFSET 26.204689 0.000000 0.000000
								CHANNELS 3 Xrotation Yrotation Zrotation
								End Site
								{
									OFFSET 26.204704 0.000000 0.000000
								}
							}
						}
					}
				}
				JOINT Model_RightShoulder
				{
					OFFSET -7.008500 14.768555 -1.949840
					CHANNELS 3 Xrotation Yrotation Zrotation
					JOINT Model_RightArm
					{
						OFFSET -14.126281 -3.718018 -0.029932
						CHANNELS 3 Xrotation Yrotation Zrotation
						JOINT Model_RightForeArm
						{
							OFFSET -28.283798 0.000000 -0.000001
							CHANNELS 3 Xrotation Yrotation Zrotation
							JOINT Model_RightHand
							{
								OFFSET -26.204193 0.000000 -0.000001
								CHANNELS 3 Xrotation Yrotation Zrotation
								End Site
								{
									OFFSET -26.204208 0.000000 -0.000001
								}
							}
						}
					}
				}
			}
		}
	}
	JOINT Model_LeftUpLeg
	{
		OFFSET 8.327700 -6.193199 -0.402800
		CHANNELS 3 Xrotation Yrotation Zrotation
		JOINT Model_LeftLeg
		{
			OFFSET 0.735802 -42.108742 -0.610721
			CHANNELS 3 Xrotation Yrotation Zrotation
			JOINT Model_LeftFoot
			{
				OFFSET -0.735806 -36.833748 -0.172876
				CHANNELS 3 Xrotation Yrotation Zrotation
				JOINT Model_LeftToeBase
				{
					OFFSET -0.565857 -11.977769 16.297714
					CHANNELS 3 Xrotation Yrotation Zrotation
					JOINT Model_LeftToe_End
					{
						OFFSET -0.111712 -0.312793 7.857784
						CHANNELS 3 Xrotation Yrotation Zrotation
						End Site
						{
							OFFSET -0.111712 -0.312793 7.857784
						}
					}
				}
			}
		}
	}
	JOINT Model_RightUpLeg
	{
		OFFSET -8.327700 -6.193199 -0.516500
		CHANNELS 3 Xrotation Yrotation Zrotation
		JOINT Model_RightLeg
		{
			OFFSET -0.735785 -42.108738 -0.434061
			CHANNELS 3 Xrotation Yrotation Zrotation
			JOINT Model_RightFoot
			{
				OFFSET 0.735776 -36.833748 -0.021630
				CHANNELS 3 Xrotation Yrotation Zrotation
				JOINT Model_RightToeBase
				{
					OFFSET 0.565817 -11.977745 15.903093
					CHANNELS 3 Xrotation Yrotation Zrotation
					JOINT Model_RightToe_End
					{
						OFFSET 0.111702 -0.312791 7.811342
						CHANNELS 3 Xrotation Yrotation Zrotation
						End Site
						{
							OFFSET 0.111702 -0.312791 7.811342
						}
					}
				}
			}
		}
	}
}
MOTION
Frames: 13
Frame Time: 0.033333
-13.966530 95.931625 78.021072 -4.185904 -23.678690 1.066268 5.634645 1.317778 -0.146057 0.395309 0.361010 -0.178691 0.395722 0.363481 -0.180084 -1.669525 -0.668496 -0.688322 -1.669462 -0.672829 -0.683994 -0.000000 -0.000001 -0.000000 1.055856 2.444067 -18.482313 6.668770 3.903096 -63.408655 0.000020 -10.383386 0.000020 -0.000001 0.000000 0.000000 0.686082 2.252388 18.871493 -3.903051 15.101823 57.841320 0.000006 14.865456 -0.000011 0.000001 0.000001 0.000000 -20.401941 4.866136 3.969157 46.441741 2.950538 2.124642 -2.827387 0.385333 -6.045120 -12.474087 0.310908 -1.877748 0.000001 0.000001 -0.000000 -3.360127 -4.250602 6.418754 22.551973 7.255977 -1.328801 -11.455518 1.980351 -10.347226 -4.068300 -0.000017 -0.000002 -0.000000 0.000001 0.000000 
-14.910563 95.739090 81.690361 -3.866022 -25.251095 0.854897 5.572628 1.779092 -0.075558 0.396657 0.483293 -0.161492 0.397344 0.485293 -0.163225 -1.723341 -0.704705 -0.655027 -1.723206 -0.708304 -0.651125 -0.000000 -0.000001 0.000000 1.049130 2.601989 -18.126849 9.199677 6.171364 -65.014686 0.000000 -9.144056 -0.000015 -0.000001 0.000001 0.000000 0.638026 2.843551 18.867897 -6.316919 18.181677 56.123661 -0.000001 18.365040 0.000016 -0.000000 -0.000002 -0.000001 -22.670217 4.677733 4.690498 36.652752 5.344332 2.613326 -2.292867 0.414713 -6.808746 -2.283130 -0.000007 0.000003 -0.000000 0.000001 -0.000000 -0.900560 -4.872201 5.963971 22.715252 9.527517 -1.328511 -13.855324 2.402884 -10.641025 -4.677199 0.000026 0.000001 0.000000 -0.000001 0.000000 
-15.875614 95.271576 85.345940 -3.389754 -26.662026 0.456085 5.436292 2.134461 0.199945 0.383123 0.571670 -0.103854 0.384492 0.572733 -0.105612 -1.810605 -0.739159 -0.591692 -1.810618 -0.741560 -0.588158 0.000000 0.000000 0.000000 1.042038 2.740687 -17.808962 11.408985 7.924850 -66.346074 -0.000015 -7.722280 0.000003 -0.000001 0.000000 0.000000 0.581163 3.541773 18.891986 -8.627705 20.618207 54.399998 0.000015 21.771966 0.000015 0.000001 -0.000002 0.000001 -22.949521 4.743520 5.645525 22.645168 7.484047 3.287119 0.085218 0.553894 -7.373435 -2.046350 0.000017 -0.000003 -0.000001 -0.000001 -0.000000 1.331549 -5.295327 5.720789 23.058150 9.917438 -1.275893 -16.647772 4.293650 -10.671175 -5.560536 -0.000004 0.000002 0.000000 -0.000001 0.000000 
-16.942488 94.522942 89.074875 -2.530487 -27.937629 -0.046890 4.862251 2.358799 0.690309 0.382714 0.620714 -0.018371 0.385526 0.619491 -0.018651 -1.927814 -0.754917 -0.547409 -1.928018 -0.755964 -0.544375 -0.000000 0.000001 -0.000000 1.055095 2.966593 -17.735022 13.129572 9.359037 -67.167097 0.000005 -6.384816 0.000010 0.000000 0.000001 0.000001 0.542801 4.011366 18.887268 -11.058961 22.914229 52.933157 0.000013 24.279135 0.000003 0.000000 -0.000001 -0.000002 -23.158834 4.953821 6.852321 8.801115 7.625247 3.735115 5.722940 1.474387 -7.238171 -2.674555 0.000006 -0.000000 -0.000001 0.000001 0.000000 3.071145 -5.378036 5.764631 23.807734 9.955967 -1.160162 -19.670433 5.956062 -10.598197 -5.501080 -0.000003 0.000001 0.000001 -0.000001 0.000000 
-18.173384 93.311287 93.127365 -1.771144 -28.911477 -0.530773 3.906109 2.396431 1.199039 0.582630 0.616853 -0.023374 0.587349 0.613647 -0.019532 -2.014244 -0.768961 -0.514374 -2.014661 -0.769587 -0.511683 -0.000000 -0.000001 0.000000 1.062255 3.068575 -17.716172 14.568496 10.469031 -67.482433 -0.000009 -5.489825 -0.000004 0.000001 -0.000000 -0.000001 0.525200 4.215382 18.998084 -13.709434 24.840093 51.967112 -0.000001 25.389118 0.000029 0.000002 -0.000003 0.000001 -25.851445 5.509890 8.615779 2.131148 7.053993 2.822908 0.007567 1.117167 -8.771876 -3.162571 -0.000011 0.000002 -0.000002 -0.000001 -0.000001 4.466136 -5.459545 5.691902 26.081858 9.862320 -1.096280 -23.573578 7.420744 -10.287657 -6.072228 0.000004 -0.000000 0.000000 0.000001 0.000000 
-19.415890 92.656044 97.160019 -1.506737 -29.806228 -0.777779 3.662755 2.541218 1.157454 0.618759 0.660810 -0.055390 0.619954 0.657850 -0.050440 -2.029431 -0.805942 -0.517020 -2.029851 -0.806421 -0.514342 -0.000000 0.000003 0.000000 1.046005 2.899713 -17.639594 15.826872 11.439706 -67.443146 -0.000043 -5.019623 -0.000023 -0.000001 -0.000002 -0.000000 0.513973 4.346974 19.027707 -16.328976 25.820007 51.899363 0.000009 25.376687 -0.000002 -0.000001 -0.000003 0.000000 -29.687294 6.229938 10.454105 2.529234 2.734327 0.383439 -4.366741 0.875931 -10.233267 -4.689981 0.000008 0.000003 -0.000002 -0.000000 0.000001 7.578223 -5.625405 5.198263 25.198489 9.630346 -1.242766 -24.986217 8.797418 -9.202758 -7.692496 0.000003 -0.000002 0.000000 0.000002 0.000000 
-20.588888 92.057915 101.349258 -1.488695 -30.658984 -0.785324 3.732270 2.837099 0.969268 0.624618 0.748981 -0.117273 0.623712 0.747230 -0.112007 -2.064516 -0.854126 -0.596729 -2.064677 -0.854838 -0.594297 -0.000000 0.000001 -0.000000 1.042679 2.812164 -17.671981 16.551384 12.012417 -66.932179 0.000003 -4.807158 0.000022 -0.000000 -0.000001 0.000001 0.497307 4.580356 18.779098 -18.362229 25.666719 52.510085 0.000005 24.963513 -0.000005 -0.000000 -0.000001 -0.000002 -30.671432 5.650454 10.406053 3.011024 -2.608458 0.214343 -4.735540 0.913700 -9.910464 -5.679496 -0.000001 -0.000004 -0.000001 -0.000000 -0.000001 10.693534 -5.468626 4.592745 24.693116 9.322865 -2.070332 -25.918714 9.305316 -8.159489 -10.789195 -0.000011 -0.000003 -0.000000 -0.000001 0.000000 
-21.800638 91.567886 105.869942 -1.902780 -31.656441 -0.643212 4.000110 3.532292 0.544060 0.612311 0.954134 -0.197466 0.616572 0.954186 -0.194032 -2.071430 -0.938189 -0.699408 -2.070894 -0.939469 -0.697761 -0.000000 -0.000001 -0.000000 1.053874 2.826944 -17.832488 16.689922 11.813470 -66.005152 -0.000003 -4.920501 -0.000011 -0.000002 -0.000000 -0.000000 0.478024 4.863626 18.508633 -19.113308 24.664962 52.910901 0.000022 24.494361 0.000001 -0.000003 -0.000003 0.000000 -28.960859 5.721180 9.766839 3.139163 -5.511608 -0.070894 -0.109195 0.269893 -8.865097 -6.760929 0.000010 0.000003 -0.000001 0.000001 0.000001 13.982909 -5.351158 3.643476 24.659684 8.881772 -3.395252 -25.851486 9.437680 -7.034541 -15.984027 0.000016 0.000001 0.000000 0.000002 0.000000 
-23.130257 91.523636 110.692497 -2.888035 -33.491976 -0.436555 4.451210 4.976432 -0.309804 0.509036 1.378232 -0.330350 0.511763 1.380200 -0.331160 -1.964586 -1.069602 -0.755609 -1.962720 -1.071955 -0.754889 -0.000000 -0.000000 -0.000000 1.076698 3.010473 -17.965752 16.743420 11.515678 -64.949614 -0.000035 -5.356494 0.000017 0.000001 0.000003 -0.000001 0.472947 4.896821 18.678313 -18.147010 23.999586 52.747324 0.000011 23.458355 -0.000004 -0.000000 -0.000000 -0.000000 -25.549991 5.927931 8.670984 3.265573 -5.873167 0.198262 5.893552 -0.467616 -8.872524 -8.250637 0.000018 -0.000008 0.000001 -0.000002 -0.000001 17.729851 -5.827429 1.864169 24.014107 8.261208 -4.902872 -23.397013 10.171467 -5.615294 -21.094529 0.000116 -0.133221 0.000001 0.000000 0.000000 
-24.512032 91.874069 115.549522 -3.655038 -35.880763 -0.214356 4.654960 6.348804 -1.068129 0.242864 1.779774 -0.418798 0.243434 1.782571 -0.421570 -1.842133 -1.132156 -0.808555 -1.838682 -1.136188 -0.807980 -0.000000 -0.000003 -0.000000 1.151768 3.624322 -18.367523 16.746300 11.652319 -63.803515 0.000012 -5.703050 0.000021 0.000001 0.000000 0.000002 0.470372 4.889671 18.897252 -16.349373 23.602088 52.937928 -0.000011 21.042093 0.000014 -0.000001 -0.000003 -0.000001 -21.784134 5.885897 7.620954 3.117769 -3.671227 1.149086 10.734631 -1.082356 -9.943693 -8.258109 -0.000013 -0.000006 0.000000 0.000001 0.000001 19.265310 -5.837761 0.050510 25.943222 7.026378 -6.836773 -18.397393 10.030359 -4.243407 -28.247832 0.011947 -1.376377 0.000000 0.000001 0.000000 
-25.910078 92.063644 120.335609 -3.719178 -37.549884 0.400851 4.333201 6.716326 -1.616790 0.065484 1.892104 -0.503373 0.064046 1.896253 -0.502046 -1.836124 -1.090611 -0.868888 -1.831575 -1.096200 -0.868644 -0.000000 -0.000001 -0.000000 1.238749 4.213873 -18.895746 15.860360 11.595671 -62.775845 0.000001 -5.700335 0.000033 0.000000 0.000001 0.000001 0.463551 5.005216 18.716863 -15.141621 22.515958 54.210057 0.000011 17.512455 -0.000016 0.000001 -0.000004 0.000000 -22.905104 6.481606 7.408010 11.725315 -2.914822 0.109819 9.037972 -0.672645 -7.399333 -6.541722 -0.000017 -0.000002 0.000000 -0.000004 -0.000001 17.139516 -5.449134 -1.105906 32.915682 6.384547 -9.007508 -10.088721 7.456138 -3.784579 -35.250599 0.140164 -0.254725 0.000001 0.000001 0.000000 
-27.272509 92.430367 124.775253 -3.898301 -37.939536 1.212158 4.363774 6.153789 -2.388771 0.043468 1.749902 -0.656976 0.038095 1.756841 -0.655278 -1.890489 -1.038501 -0.873872 -1.886090 -1.044577 -0.873624 -0.000000 0.000002 -0.000000 1.224016 3.946685 -18.993247 14.084742 10.626497 -62.178094 -0.000012 -5.583143 -0.000056 0.000000 0.000000 -0.000001 0.471809 4.917482 18.631791 -14.365889 21.047974 55.755835 -0.000007 13.998370 -0.000005 -0.000000 -0.000001 -0.000001 -22.166867 7.050345 6.328623 16.745812 -3.054229 -0.940461 7.056069 -0.517849 -5.703329 -5.115278 0.000009 -0.000003 0.000000 -0.000003 -0.000000 13.437501 -5.126247 -2.644083 39.765030 8.447443 -8.603182 6.484482 2.891131 -2.720567 -53.065123 1.497884 -2.002265 -0.000000 -0.000001 0.000000 
-28.655184 93.007698 128.735321 -4.706398 -37.646459 1.430967 4.996738 5.049870 -3.058421 0.138090 1.462111 -0.759063 0.130715 1.471543 -0.759607 -1.887728 -0.976451 -0.857741 -1.884042 -0.983391 -0.856318 -0.000000 -0.000002 -0.000000 1.134249 2.941590 -18.923652 12.067032 8.500223 -61.689203 -0.000003 -5.613937 0.000007 0.000001 -0.000001 -0.000001 0.485357 4.726130 18.765883 -13.317991 19.625140 56.906042 0.000012 10.854620 -0.000001 -0.000001 0.000000 -0.000001 -20.426027 6.713367 4.370639 20.810565 -2.705563 -0.517504 3.483922 -0.257272 -3.995171 -4.873402 0.000031 -0.000003 0.000000 0.000001 0.000000 8.944384 -4.311281 -4.554707 45.604306 5.499019 -6.260448 21.880564 0.712975 2.677486 -58.156015 2.004515 -1.718563 0.000001 0.000000 -0.000000 
